<?xml version="1.0" encoding="utf-8"?>
<!-- Generator: Adobe Illustrator 23.0.1, SVG Export Plug-In . SVG Version: 6.00 Build 0)  -->
<svg version="1.1" id="Layer_1" xmlns="http://www.w3.org/2000/svg" xmlns:xlink="http://www.w3.org/1999/xlink" x="0px" y="0px"
	 viewBox="0 0 109 34" style="enable-background:new 0 0 109 34;" xml:space="preserve">
<style type="text/css">
	.st0{fill:#FFFFFF;}
</style>
<title>logo-bind</title>
<desc>Created with Sketch.</desc>
<path class="st0" d="M9.9,27.5c1.5,0,2.8-1.2,2.8-3.4c0-2.1-1.1-3.5-2.8-3.5c-1.4,0-2.8,1-2.8,3.5C7.1,25.8,8,27.5,9.9,27.5 M2.5,16
	c0-0.4-0.2-0.6-0.6-0.6h-1v-4h4.4c1.4,0,2,0.6,2,2v3.3c0,0.7-0.1,1.2-0.1,1.2h0.1c0,0,1.3-1.4,3.8-1.4c3.9,0,6.4,3,6.4,7.4
	c0,4.5-2.8,7.4-6.6,7.4C8.2,31.4,7,30,7,30H6.9c0,0,0,0.4,0,0.8v0.3H2.5V16z"/>
<path class="st0" d="M20.6,11.4h4v3.9h-4V11.4z M20.2,21.5c0-0.4-0.2-0.6-0.6-0.6h-1v-4H23c1.4,0,2,0.6,2,2v7.6
	c0,0.4,0.2,0.6,0.6,0.6h1v4h-4.4c-1.4,0-2-0.6-2-2V21.5z"/>
<path class="st0" d="M29.3,21.5c0-0.4-0.2-0.6-0.6-0.6h-1v-4h4.2c1.3,0,2,0.6,2,1.6v0.2c0,0.1,0,0.3,0,0.3h0.1
	c0.7-1.1,2-2.5,4.5-2.5c2.9,0,5.1,1.3,5.1,5.3v4.6c0,0.4,0.2,0.6,0.6,0.6h1v4h-4.4c-1.4,0-2-0.6-2-2v-6.3c0-1.3-0.5-1.9-1.6-1.9
	c-1.5,0-2.4,0.8-2.8,2c-0.2,0.6-0.3,1.2-0.3,1.9v6.3h-4.8V21.5z"/>
<path class="st0" d="M56.5,24c0-1.7-0.9-3.4-2.8-3.4c-1.5,0-2.8,1.2-2.8,3.4c0,2.1,1.1,3.5,2.8,3.5C55.2,27.5,56.5,26.4,56.5,24
	 M52.6,16.6c2.9,0,3.7,1,3.7,1h0.1c0,0,0-0.3,0-0.6V16c0-0.4-0.2-0.6-0.6-0.6h-1v-4h4.4c1.4,0,2,0.6,2,2v13.1c0,0.4,0.2,0.6,0.6,0.6
	h1v4h-4.2c-1.4,0-1.8-0.7-1.8-1.4v-0.2h-0.1c0,0-1.2,1.9-4.1,1.9c-3.9,0-6.4-3-6.4-7.4C46.2,19.5,48.9,16.6,52.6,16.6"/>
<path class="st0" d="M80.7,29.8c0-6.8,9.9-7.7,9.9-12.9c0-2.1-1.6-3.7-4-3.7c-2.8,0-4.3,2.6-4.3,2.6l-1.4-1c0,0,1.8-3.5,5.9-3.5
	c3.7,0,5.9,2.4,5.9,5.4c0,6.5-9.8,7.4-9.8,12.6h10.1v1.7H80.8C80.7,30.6,80.7,30.2,80.7,29.8"/>
<path class="st0" d="M103.8,24v-8.1c0-0.8,0.1-1.8,0.1-1.8h-0.1c0,0-0.4,0.8-1,1.5L96.4,24V24H103.8z M94.1,24.5l9.5-12.8h2.1V24
	h2.8v1.7h-2.8v5.4h-1.9v-5.4h-9.7V24.5z"/>
<polygon class="st0" points="71.7,18.1 67,9.8 71.7,1.5 76.4,9.8 "/>
</svg>
